<?xml version="1.0" encoding="UTF-8"?>
<svg xmlns="http://www.w3.org/2000/svg" xmlns:xlink="http://www.w3.org/1999/xlink" viewBox="0 0 128 128" width="128px" height="128px">
<g id="surface6108355">
<path style=" stroke:none;fill-rule:nonzero;fill:rgb(100%,100%,100%);fill-opacity:1;" d="M 60 4 C 58 4 56.203125 5 55 6.601562 L 49 16 L 26 16 C 22.601562 16 20 18.601562 20 22 L 20 34 C 20 37.398438 22.601562 40 26 40 L 26.195312 40 L 33.195312 107 C 33.796875 112.203125 38 116 43.195312 116 L 92.804688 116 C 98 116 102.203125 112.203125 102.804688 107 L 109.804688 40 L 110 40 C 113.398438 40 116 37.398438 116 34 L 116 22 C 116 18.601562 113.398438 16 110 16 L 87 16 L 80.804688 6.601562 C 79.804688 5 77.804688 4 75.804688 4 Z M 60.195312 8 L 76 8 C 76.601562 8 77.203125 8.398438 77.601562 8.796875 L 82.195312 16 L 53.804688 16 L 58.398438 8.796875 C 58.796875 8.398438 59.398438 8 60.195312 8 Z M 26 20 L 110 20 C 111.203125 20 112 20.796875 112 22 L 112 34 C 112 35.203125 111.203125 36 110 36 L 26 36 C 24.796875 36 24 35.203125 24 34 L 24 22 C 24 20.796875 24.796875 20 26 20 Z M 32 24 C 30.796875 24 30 24.796875 30 26 L 30 30 C 30 31.203125 30.796875 32 32 32 C 33.203125 32 34 31.203125 34 30 L 34 26 C 34 24.796875 33.203125 24 32 24 Z M 42 24 C 40.796875 24 40 24.796875 40 26 L 40 30 C 40 31.203125 40.796875 32 42 32 C 43.203125 32 44 31.203125 44 30 L 44 26 C 44 24.796875 43.203125 24 42 24 Z M 52 24 C 50.796875 24 50 24.796875 50 26 L 50 30 C 50 31.203125 50.796875 32 52 32 C 53.203125 32 54 31.203125 54 30 L 54 26 C 54 24.796875 53.203125 24 52 24 Z M 62 24 C 60.796875 24 60 24.796875 60 26 L 60 30 C 60 31.203125 60.796875 32 62 32 C 63.203125 32 64 31.203125 64 30 L 64 26 C 64 24.796875 63.203125 24 62 24 Z M 74 24 C 72.796875 24 72 24.796875 72 26 L 72 30 C 72 31.203125 72.796875 32 74 32 C 75.203125 32 76 31.203125 76 30 L 76 26 C 76 24.796875 75.203125 24 74 24 Z M 84 24 C 82.796875 24 82 24.796875 82 26 L 82 30 C 82 31.203125 82.796875 32 84 32 C 85.203125 32 86 31.203125 86 30 L 86 26 C 86 24.796875 85.203125 24 84 24 Z M 94 24 C 92.796875 24 92 24.796875 92 26 L 92 30 C 92 31.203125 92.796875 32 94 32 C 95.203125 32 96 31.203125 96 30 L 96 26 C 96 24.796875 95.203125 24 94 24 Z M 104 24 C 102.796875 24 102 24.796875 102 26 L 102 30 C 102 31.203125 102.796875 32 104 32 C 105.203125 32 106 31.203125 106 30 L 106 26 C 106 24.796875 105.203125 24 104 24 Z M 30.195312 40 L 105.804688 40 L 98.804688 106.601562 C 98.398438 109.601562 96 112 92.804688 112 L 43.195312 112 C 40.195312 112 37.601562 109.601562 37.195312 106.601562 Z M 68 50 C 66.796875 50 66 50.796875 66 52 L 66 92 C 66 93.203125 66.796875 94 68 94 C 69.203125 94 70 93.203125 70 92 L 70 52 C 70 50.796875 69.203125 50 68 50 Z M 50 50.195312 C 48.796875 50.195312 48 51.195312 48.195312 52.195312 L 50.195312 92.195312 C 50 93.195312 51 94 52 94 C 53.203125 94 54 93 54 92 L 52 52 C 52 50.796875 51 50 50 50.195312 Z M 86.195312 50.195312 C 85 50.195312 84.195312 51 84.195312 52 L 82.195312 92 C 82 93 82.796875 94 84 94 C 85.203125 94 86 93.195312 86 92.195312 L 88 52.195312 C 88 51 87.195312 50.195312 86.195312 50.195312 Z M 46 104 C 44.796875 104 44 104.796875 44 106 C 44 107.203125 44.796875 108 46 108 L 74 108 C 75.203125 108 76 107.203125 76 106 C 76 104.796875 75.203125 104 74 104 Z M 82 104 C 80.796875 104 80 104.796875 80 106 C 80 107.203125 80.796875 108 82 108 L 90 108 C 91.203125 108 92 107.203125 92 106 C 92 104.796875 91.203125 104 90 104 Z M 82 104 "/>
</g>
</svg>
